<?xml version="1.0" encoding="utf-8"?>
<!-- Generator: Adobe Adobe Illustrator 24.2.0, SVG Export Plug-In . SVG Version: 6.00 Build 0)  -->
<svg version="1.1" xmlns="http://www.w3.org/2000/svg" xmlns:xlink="http://www.w3.org/1999/xlink" x="0px" y="0px" width="94.5px"
	 height="258.5px" viewBox="0 0 94.5 258.5" style="enable-background:new 0 0 94.5 258.5;" xml:space="preserve">
<style type="text/css">
	.st0{display:none;}
	.st1{display:inline;}
	.st2{display:none;fill:#0040FF;}
	.st3{fill:#0040FF;}
	.st4{display:none;fill:#002AA8;}
	.st5{fill:#04B8FF;}
	.st6{fill:#FFFFFF;}
	.st7{display:inline;fill:none;stroke:#FFFFFF;stroke-miterlimit:10;}
	.st8{fill:none;stroke:#FFFFFF;stroke-miterlimit:10;}
	.st9{fill:#FFFFFF;stroke:#FFFFFF;stroke-width:6;stroke-miterlimit:10;}
	.st10{fill:none;stroke:#FFFFFF;stroke-width:6;stroke-miterlimit:10;}
	.st11{fill:#0040FF;stroke:#FFFFFF;stroke-width:6;stroke-miterlimit:10;}
	.st12{fill:none;stroke:#000000;stroke-width:20;stroke-miterlimit:10;}
	.st13{display:inline;fill:none;stroke:#000000;stroke-width:20;stroke-miterlimit:10;}
	.st14{display:inline;clip-path:url(#SVGID_4_);}
	.st15{display:inline;fill:none;stroke:#FFFFFF;stroke-width:8;stroke-miterlimit:10;}
	.st16{display:inline;fill:none;stroke:#0040FF;stroke-width:8;stroke-miterlimit:10;}
	.st17{fill:#40FF00;stroke:#0040FF;stroke-width:5;stroke-miterlimit:10;}
	.st18{fill:none;stroke:#0040FF;stroke-width:10;stroke-miterlimit:10;}
	.st19{clip-path:url(#SVGID_6_);fill:#00FF26;}
	.st20{clip-path:url(#SVGID_10_);fill:#0040FF;}
</style>
<g id="Layer_5" class="st0">
	<g id="Layer_3" class="st1">
	</g>
	<g id="Layer_1" class="st1">
		<g id="Layer_2">
		</g>
	</g>
</g>
<g id="Layer_4" class="st0">
</g>
<g id="Layer_7" class="st0">
</g>
<g id="Milk_bottle">
	<rect x="-3.07" y="-1.07" class="st3" width="602" height="846"/>
	<path id="bottle" class="st10" d="M65.3,66.6c0.05,1.21,0.15,2.42,0.35,3.64c0.02,0.13,0.03,0.26,0.03,0.39
		c0,3.81-9.16,6.89-20.45,6.89c-11.3,0-20.45-3.09-20.45-6.89c0-0.13,0.01-0.26,0.03-0.39c0.2-1.21,0.3-2.43,0.35-3.64
		c-12.01,4.55-20.6,16.64-20.6,30.83v101.46v17.9c0,8.21,6.33,14.87,14.15,14.87h17.03h18.99h17.03c7.81,0,14.15-6.66,14.15-14.87
		v-17.9V97.44C85.9,83.24,77.31,71.15,65.3,66.6z"/>
	<path id="teat" class="st10" d="M65.66,60.52c0.02-0.13,0.03-0.26,0.03-0.39c0-2.75-4.81-5.13-11.73-6.23V13.51
		c0-4.41-3.58-7.99-7.99-7.99h-0.38c-4.41,0-7.99,3.58-7.99,7.99v40.23c-7.51,1.02-12.81,3.5-12.81,6.39c0,0.13,0.01,0.26,0.03,0.39
		c0.54,3.24,0.54,6.47,0,9.72c-0.02,0.13-0.03,0.26-0.03,0.39c0,3.81,9.16,6.89,20.45,6.89c11.3,0,20.45-3.09,20.45-6.89
		c0-0.13-0.01-0.26-0.03-0.39C65.11,67,65.11,63.77,65.66,60.52z"/>
	<path id="fill_x5F_1" class="st6" d="M4.57,179.24v19.65v17.9c0,8.21,6.33,14.87,14.15,14.87h17.03h18.99h17.03
		c7.81,0,14.15-6.66,14.15-14.87v-17.9v-19.65H4.57z"/>
	<path id="fill_x5F_2" class="st6" d="M4.57,130.51v68.38v17.9c0,8.21,6.33,14.87,14.15,14.87h17.03h18.99h17.03
		c7.81,0,14.15-6.66,14.15-14.87v-17.9v-68.38H4.57z"/>
	<path id="fill_x5F_3" class="st6" d="M4.57,97.44v101.46v17.9c0,8.21,6.33,14.87,14.15,14.87h17.03h18.99h17.03
		c7.81,0,14.15-6.66,14.15-14.87v-17.9V97.44c0-1.88-0.16-3.71-0.45-5.5H5.02C4.73,93.73,4.57,95.56,4.57,97.44z"/>
	<ellipse class="st17" cx="44.18" cy="229.43" rx="25" ry="24.75"/>
	<polyline class="st18" points="28.36,228.73 41.93,241.31 58,217.56 	"/>
</g>
</svg>
