<?xml version="1.0" encoding="UTF-8"?>
<svg xmlns="http://www.w3.org/2000/svg" version="1.1" viewBox="0 0 595.3 841.9">
  <defs>
    <style>
      .cls-1 {
        fill: none;
      }
    </style>
  </defs>
  <!-- Generator: Adobe Illustrator 28.6.0, SVG Export Plug-In . SVG Version: 1.2.0 Build 709)  -->
  <g>
    <g id="Layer_1">
      <g id="Layer_1-2" data-name="Layer_1">
        <circle cx="432.6" cy="412.1" r="16.4"/>
        <path class="cls-1" d="M274.8,756.6c0-2.2,0-4.3.1-6.5-8.2-1.5-15.3-2.7-21.8-3.5,3.4,27.6,8,34.2,9.1,35.4,4.3,1,9.1,1.8,14.1,2.6-.2-1.6-.5-3.3-.6-4.9-.8-8.3-1-16-1-23.2h0Z"/>
        <path class="cls-1" d="M176.2,755c.4,9.6.6,20-.5,31.4,6.9-.8,12.9-2,18-3.6,8.2-2.5,10.1-22.5,10.6-36.6-8.2.9-17.3,2.3-28.4,3.9,0,1.6.2,3.2.2,4.8h0Z"/>
        <path d="M219.1,463.2h0,0Z"/>
        <path d="M569.9,374.2c-.4-11.1-1-20-1.6-26.5-.5-6.4-1-10.4-1.1-11.5,0-.6-.2-1.3-.3-1.9,0-.6,0-1.3-.1-1.9-.1-1.1-.4-5-1.3-11.4-.8-6.4-2-15.3-4-26.3-1.1-5.5-2.2-11.5-3.8-17.9-1.4-6.5-3.5-13.3-5.6-20.6-1.2-3.6-2.5-7.3-3.8-11.2-1.4-3.8-3.1-7.6-4.7-11.6-.8-2-1.8-3.9-2.8-5.9-1-2-2-4-3-6-.9-1.9-2.3-4.3-3.6-6.3-1.3-2-2.7-4-4.2-5.9-5.7-7.5-11.8-14.5-17.6-21.9-5.8-7.4-11.3-15.1-15.4-23.4-4.1-8.3-6.6-17.2-6-26,.2-4.5,1.3-8.7,3-13.3,1.7-4.6,3.9-9.3,6.4-14,4.9-9.4,10.8-18.8,16.6-28.8,2.9-5,5.9-10,8.5-16.2.3-.8.6-1.7.9-2.6l.5-1.3c.2-.4.3-1.1.4-1.7.2-1.2.5-2.4.5-3.5,0-1.2,0-2.2,0-3.2-.3-3.9-1.1-7.2-2-10.5-2-6.5-4.8-12.4-8.6-18-3.8-5.6-8.6-10.8-14.9-14.8-3.2-2-6.7-3.6-10.5-4.5-1-.2-1.9-.4-2.9-.6-1-.1-1.9-.3-2.9-.3-1,0-1.9-.1-3,0-1.2,0-2.4.2-3.6.3-4.6.8-8.2,2.7-11.3,4.7-3.1,2-5.7,4.3-8.1,6.6-4.8,4.7-8.7,9.6-12.3,14.7-3.6,5.1-6.8,10.3-9.8,15.5-6,10.5-11.1,21.3-15.7,32.2-2.2,5.5-4.3,11-6.2,16.6-1.8,5.6-3.6,11.4-4.7,17.3-.6,2.9-1.2,5.8-1.8,8.7-.3,3-.7,5.9-1,8.8-.2,1.5-.3,2.9-.5,4.4v4.4c0,2.9-.2,5.9-.1,8.8.5,11.7,2.7,23.1,6,33.8,3.4,10.7,8.2,20.5,13.4,29.6,10.5,18.1,23.2,32.8,33.7,46.3,9.6,12.3,13.1,27.3,12.5,40.1-.5,12.8-5.3,23.5-11.8,29.7-6.4,6.4-13.7,8.9-18.6,10.3-1.3.3-2.4.6-3.4.9-1,.3-1.8.4-2.5.7-1.4.4-2.1.8-2.1,1.3s.7.9,2.1,1.2c.7.2,1.6.4,2.7.5,1.1,0,2.3.2,3.8.2,2.9-.1,6.5-.3,10.6-1.6,4.1-1.2,8.7-3.3,13.2-6.9,9.1-6.9,16.2-19.9,17.8-35.3.8-7.7.4-16-1.6-24.5-1.9-8.4-5.7-17.2-11.4-25-10.3-14.4-22.1-28.9-31.3-45.7-4.5-8.4-8.6-17.2-11.4-26.6-2.7-9.4-4.5-19.3-4.8-29.5,0-2.5.1-5.1.1-7.7v-3.9c.2-1.3.4-2.6.5-3.9.3-2.6.6-5.2.9-7.8.5-2.6,1.1-5.2,1.7-7.7.9-5.2,2.5-10.3,4.3-15.5,1.8-5.2,3.7-10.3,5.9-15.5,4.3-10.3,9.2-20.5,14.8-30.2,2.8-4.9,5.7-9.6,8.9-14.1,3.2-4.5,6.6-8.7,10.2-12.2,1.8-1.8,3.7-3.3,5.5-4.5,1.8-1.2,3.5-2,4.7-2.2.3,0,.5,0,.8,0,.3,0,.9,0,1.4,0,.5,0,.9.1,1.4.2l1.4.3c1.9.5,3.7,1.3,5.5,2.4,7.2,4.5,13.2,13.7,16.1,23,.7,2.3,1.2,4.6,1.3,6.5,0,.4,0,.9,0,1.2,0,.3-.2.5-.2.7,0,.2,0,.2,0,.4l-.3.7c-.2.5-.3.9-.5,1.5-1.9,4.4-4.6,9.3-7.4,14.1-5.6,9.7-11.6,19.4-16.8,29.6-2.6,5.1-5.1,10.3-7.2,16-1.1,2.8-1.9,5.8-2.6,8.8-.6,3.1-1.1,6.2-1.2,9.3-.3,6.3.4,12.4,1.9,18.2,1.5,5.8,3.6,11.2,6.2,16.1,5.1,10,11.4,18.4,17.6,26.1,6.2,7.7,12.5,14.7,17.7,21.4,1.3,1.7,2.5,3.3,3.6,5,1.1,1.7,2,3.1,2.9,5,.9,1.8,1.9,3.6,2.8,5.4.9,1.8,1.9,3.5,2.6,5.4,1.5,3.7,3.2,7.2,4.5,10.7,1.3,3.6,2.5,7,3.7,10.4,2.1,6.9,4.2,13.4,5.6,19.5,1.7,6.1,2.8,11.9,3.9,17.1,2.1,10.5,3.5,19.2,4.3,25.4.9,6.2,1.3,10,1.4,11.1,0,.6.2,1.2.3,1.9,0,.6,0,1.2.1,1.9.1,1.1.5,4.9.9,11.2.5,6.3.9,15,1.2,25.8.3,10.8.2,23.7-.6,38.2-.8,14.6-2.6,30.5-6.8,47.4-2.2,8.4-4.7,17.1-8.1,25.8-1.5,4.4-3.5,8.7-5.3,13.2-2,4.4-3.9,8.9-6.3,13.3-4.4,8.9-9.4,17.8-15,26.6-5.5,8.9-11.5,17.7-17.9,26.5-12.8,17.6-27.2,35-42,52.9-7.4,9-14.8,18.1-21.9,27.7-3.6,4.8-7,9.8-10.3,14.9-1.6,2.7-3.3,5.2-4.7,8l-2.2,4.1-2.3,4.9-.9,2c-.1.3-.4.6-.4,1v1.1c0,0,.3,3.8.3,3.8l.3,4.4.5,8.7c.3,5.8.6,11.5.8,17.3.4,11.5.5,22.9.1,34.1-.4,11.2-1.2,22.3-3.2,32.6-1,5.1-2.3,10.1-4,14.3-1.7,4.2-4.3,7.4-5.8,7.9,0,0-.2,0-.3.1,0,0-.5.2-.8.2l-1.8.5c-1.2.3-2.3.7-3.6.9l-3.7.8c-1.2.2-2.5.4-3.7.6-5,.8-10,1.3-15.1,1.7-10.1.6-20.1.6-29.8,0-9.7-.5-19.2-1.4-28.2-2.8-2.2-.4-4.5-.7-6.6-1.1-1.1-.2-2.2-.4-3.2-.6l-.8-.2h-.4c-.3-.2-.6-.3-.8-.4-2.1-.8-4.2-2.8-5.9-5.8-1.7-3-3-6.6-4-10.2s-1.8-7.4-2.3-11.2c-1.2-7.5-1.7-14.8-2.1-21.8-.8-13.9-.9-26.2-1.2-36.3-.5-20.3-1.8-32-3.6-32-1.8,0-3.3,11.5-5.2,31.7-.3,3.8-.7,8-1,12.4-43.9-7.9-60-6-100.9.2-.2-1.9-.3-3.9-.4-5.7-.7-8.4-1.3-15.7-1.8-21.7-1.1-12-2-18.9-3.8-19-1.7-.1-3.8,6.7-5,19-.6,6.1-1,13.5-1.3,22-.2,8.5-.3,18-.5,28.3-.2,10.2-.6,21.4-2.3,32.3-.8,5.4-2.3,10.8-4.4,15.1-1.1,2.1-2.4,3.7-3.7,4.7-.3.3-.6.5-1,.7-.4.2-.7.5-1.1.5l-.6.2h-.3c0,.1-.5.2-.5.2l-2.1.5c-11.4,2.9-24.5,3.8-37.7,3.8-13.2,0-26.8-1-40.2-2.9-3.3-.5-6.7-1-10-1.6-1.7-.3-3.3-.7-4.9-1l-1.2-.2c-.3,0-.3,0-.3,0,0,0-.1,0-.2,0-.2,0-.4-.2-.7-.3-1-.5-2.4-2-3.6-4.2-1.2-2.2-2.3-4.9-3.2-7.9-1.8-5.8-2.8-12.2-3.6-18.6-.8-6.4-1.2-12.9-1.6-19.4-1.2-25.8-.2-50.5,0-72,0-5.4.2-10.6.1-15.6,0-4.8,0-9.4.2-13.7,0-4.3.5-8.3.7-12.1.3-3.7.8-7.2,1.1-10.3.3-3.2.9-5.9,1.3-8.4.4-2.5.7-4.7,1.2-6.4.8-3.6,1.3-5.8,1.4-6.4,0-.4.1-.7.2-1.1.1-.3.2-.7.3-1,.2-.6.9-3,2.1-6.9,1.1-3.9,3.2-9.2,5.7-15.7,5.4-12.8,14.5-30,29-47.3,1.9-2.1,3.9-4.2,5.8-6.4,1-1.1,2-2.2,3-3.2,1-1.1,2-2.2,3.1-3.2,2.2-2.1,4.5-4.1,6.8-6.3,2.3-2.1,4.6-4.3,7.1-6.2,2.5-2,5.1-4,7.6-6,1.3-1,2.5-2.1,3.9-3,1.4-.9,2.8-1.9,4.2-2.8,5.6-3.6,11.2-7.8,16.9-10.8,5.8-3.1,11.9-5.6,18.4-7.4,6.5-1.9,13.2-3.1,20.3-4.1,3.7-.5,7.4-1,11-1.4,3.8-.6,7.9-1.2,12.4-2.6,1-.3,2-.7,3.1-1.2.3,1.8.6,3.6,1,5.4,1.8,8.2,4.5,15.7,8,21.9,3.4,6.3,7.6,11.3,11.4,15,1,.9,1.9,1.7,2.9,2.5s1.9,1.4,2.7,2.1c1.7,1.3,3.2,2.3,4.6,3.1,2.6,1.7,4.3,2.4,4.7,2.7.3.2.5.2.8.4.2.2.5.3.8.5,1,.4,8,4.4,19.9,7.3,5.9,1.5,13,2.8,20.8,3.8,3.9.5,8,.9,12.3,1.3,2,.2,4,.4,6.1.6.2,0,.5,0,.5.2v.2h0c0,.1,0,.4,0,.4-.1-.2.4,1.2.8,2.1.4,1,.9,1.8,1.3,2.8,1.9,3.6,4.2,6.6,6.7,9.4,5.1,5.5,10.9,10,17.1,14,12.5,7.8,26.8,13.6,42.1,16.7,7.6,1.5,15.6,2.3,23.6,2.1,8-.2,16.2-1.5,24-4.5,7.8-2.8,15.1-7.5,20.9-13.4,5.8-5.9,10-12.9,12.7-20,2.8-7.1,4.2-14.1,4.9-20.9.7-6.7.7-13.1.3-19.1-.3-6-1.2-11.6-2.1-16.7-.5-2.6-1-5-1.5-7.4-.5-2.2-1-4.3-1.4-6.4-.9-4.1-1.6-7.9-2.7-11.4-1.1-3.5-2.5-6.6-4-8.7-3-4.3-5.6-5.7-6.6-5-1.1.7-.4,3.5.5,7.7.4,2.2.8,4.6.9,7.7.2,3.1.2,6.9.4,11.3.1,2.2.3,4.5.5,6.9.2,2.2.4,4.6.6,7,.3,4.9.6,10,.5,15.4-.2,10.7-1.3,22.6-5.9,33.2-2.2,5.3-5.4,10.1-9.5,14.1-4.1,4-9.1,7.1-14.8,9.1-11.4,4.2-25.1,4.1-38.2,1.6-13.1-2.5-25.8-7.4-36.5-13.9-5.4-3.2-10.2-6.9-13.9-10.8-1.9-1.9-3.4-4-4.5-5.9-.2-.5-.6-1-.7-1.4-.2-.5-.4-.5-.6-2.3l-.4-2.1c0-.8-.1-1.6-.2-2.4-.1-1.5-.2-3.1-.3-4.6-4.2-.4-8.7-.6-12.9-.9-2.3-.2-4.6-.3-6.9-.4-4.2-.3-8.2-.6-11.9-.9-7.4-.7-13.9-1.6-19.1-2.8-10.5-2.2-16.2-5.2-17-5.5-.2-.1-.5-.2-.7-.2-.2-.2-.4-.3-.6-.4-.7-.5-5.4-2.7-11.2-8.5-2.8-2.9-5.8-6.8-8.3-11.8-2.5-5-4.6-11.1-5.9-18-.8-4.3-1.3-9-1.6-13.9-.2-3-.3-6.1-.2-9.2,0-3.1.2-6.3.4-9.5.3-5.5.8-11.1,1.6-16.8,1.2-9.1,2.9-18.2,5.7-27.1,2.8-8.8,6.6-17.3,11.9-24.4,5.2-7.1,11.7-13,19.3-16.8,1.8-1.1,3.9-1.8,5.8-2.6,2-.6,4-1.4,6.1-1.9,4.1-1.1,8.3-1.7,12.6-2,4.2-.4,8.5-.2,12.6,0,4.2.3,8.3.8,12.2,1.5,7.9,1.4,15.4,3.5,22.1,5.8,6.6,2.3,12.7,5.1,17.9,7.7,5.3,2.6,9.7,5.2,14.2,7.1,2.3.9,4.6,1.6,6.8,1.8,2.2,0,4-.3,5.3-.8,1.3-.5,2.2-1.1,2.7-1.7.5-.5.7-1,.6-1.5-.1-.4-.5-.8-1.2-1-.6-.2-1.5-.4-2.6-.7-1-.2-2.1-.6-3.3-1.2-1.2-.6-2.4-1.5-4-2.6-3.1-2.4-7.3-6-12.5-9.6-5.2-3.6-11.4-7.3-18.6-10.7-7.2-3.3-15.3-6.1-24.3-8.2-4.5-1-9.1-1.8-14-2.4-4.9-.5-9.9-.8-15.1-.5-5.2.3-10.5.8-15.8,2.2-2.7.5-5.3,1.5-7.9,2.3-2.6,1.1-5.2,2-7.7,3.3-10.2,4.9-19.1,12.9-25.7,22-6.7,9.1-11.2,19.4-14.3,29.6-3.1,10.2-4.8,20.5-5.9,30.3-1,8.7-1.5,17.3-1.5,25.6-.2.9-.3,1.9-.5,2.7l-.2.7s0,0,0,.2l-.2.3h0c0,0-.2.4-.2.4-.2.4-.4.7-.6,1-.5.6-1,1.1-1.8,1.6-.9.5-1.8,1-3.2,1.4-2.6.9-5.9,1.4-9.3,1.9-3.6.5-7.3,1-10.9,1.5-7.5,1.1-15.3,2.5-22.8,4.7-7.5,2.2-14.8,5.3-21.6,9-7,3.7-12.6,8.1-18.5,12.1-1.5,1-2.9,2-4.4,3-1.4,1-2.8,2.2-4.1,3.3-2.7,2.2-5.4,4.4-8.1,6.6-2.7,2.1-5.1,4.5-7.6,6.8-2.4,2.3-4.8,4.6-7.2,6.9-1.2,1.1-2.2,2.4-3.3,3.6-1.1,1.2-2.1,2.4-3.2,3.6-2.1,2.4-4.2,4.7-6.2,7-15.4,19.1-24.8,38-30.3,52-2.5,7.1-4.6,12.8-5.7,17-1.2,4.2-1.9,6.8-2.1,7.4,0,.4-.1.8-.2,1.2-.1.4-.2.7-.3,1.1-.2,1.3-2.6,9.3-4.7,22.6-.4,3.3-1,7-1.4,11-.3,4-.9,8.2-1.1,12.7-.3,4.5-.4,9.3-.6,14.3,0,4.8-.2,9.9-.5,15.2-.8,21.3-2.2,46.2-1.4,73.1.2,6.7.7,13.6,1.4,20.6.8,7,1.9,14.2,4,21.6,1.1,3.7,2.5,7.5,4.6,11.4,1.1,1.9,2.3,3.9,4,5.8,1.6,1.9,3.7,3.8,6.2,5.2,1.3.7,2.6,1.3,4.1,1.8l1.1.3c.4.1.8.2.9.2l1.3.3c1.8.4,3.6.8,5.4,1.1,3.6.7,7.2,1.2,10.7,1.8,14.3,2,28.6,3,42.8,2.9,14.2-.2,28.3-1.2,42-5l2.6-.7.7-.2.8-.3,1.7-.7c1.1-.4,2.2-1.1,3.2-1.7,1.1-.6,2-1.3,2.9-2.1,3.6-3,6-6.7,7.8-10.2.3-.7.6-1.5.9-2.2,11.1-.8,20.8-2.5,28.9-5,20.9-6.4,24.7-32,25.3-57.9,2.2,0,4.5,0,6.8,0,4,37.4,11.4,54.2,25,57.3,7.6,1.7,16.4,3.2,25.7,4.2.7,1.2,1.3,2.3,2.1,3.4.9,1.2,1.6,2.3,2.8,3.4l1.6,1.6c.6.5,1.3,1,1.9,1.5,1.2,1,2.8,1.7,4.3,2.5.8.3,1.6.6,2.4.8l1.2.4.9.2c1.2.3,2.3.5,3.5.8,2.3.5,4.7.9,7.1,1.4,9.6,1.7,19.5,2.9,29.7,3.7,10.2.7,20.8,1,31.7.5,5.5-.3,11-.7,16.6-1.6,1.4-.2,2.8-.4,4.2-.7,1.4-.3,2.9-.6,4.3-.8,1.4-.2,2.9-.7,4.3-1l2.2-.6c.4-.1.6-.2,1.2-.3l1.6-.6c4.3-1.8,7.5-4.8,9.8-7.7,2.3-3,3.9-6,5.2-9,2.6-6,4.1-11.9,5.3-17.8,2.3-11.8,3.2-23.5,3.7-35.3.5-11.8.4-23.6,0-35.4-.2-5.9-.5-11.8-.8-17.7l-.6-8.8-.3-4.4v-.5h0s0,0,0,0l1.4-3,1.9-3.6c1.2-2.4,2.8-4.7,4.2-7.1,3-4.7,6.2-9.3,9.6-13.9,6.8-9.2,14-18.1,21.3-27.1,14.6-17.9,29.2-35.7,42.3-54,6.6-9.1,12.7-18.4,18.4-27.7,5.7-9.3,10.9-18.7,15.4-28.2,2.4-4.7,4.4-9.5,6.5-14.1,1.9-4.8,3.9-9.4,5.5-14.1,3.5-9.3,6-18.6,8.3-27.6,4.2-18.1,5.9-35.3,6.5-50.3.6-15.1.5-28.3,0-39.4h.2ZM219.1,463.2h0,0ZM193.8,782.9c-5.1,1.6-11.1,2.7-18,3.6,1.1-11.4.8-21.8.5-31.4,0-1.6-.2-3.2-.2-4.8,11-1.7,20.2-3,28.4-3.9-.4,14.1-2.3,34.1-10.6,36.6h0ZM262.2,782.1c-1.1-1.2-5.8-7.8-9.1-35.4,6.5.8,13.6,2,21.8,3.5,0,2.1,0,4.2-.1,6.5,0,7.2.1,14.9,1,23.2.2,1.6.4,3.2.6,4.9-5-.8-9.8-1.6-14.1-2.6h0Z"/>
      </g>
    </g>
  </g>
</svg>