<?xml version="1.0" encoding="utf-8"?>
<!-- Generator: Adobe Adobe Illustrator 24.2.0, SVG Export Plug-In . SVG Version: 6.00 Build 0)  -->
<svg version="1.1" xmlns="http://www.w3.org/2000/svg" xmlns:xlink="http://www.w3.org/1999/xlink" x="0px" y="0px"
	 width="595.28px" height="841.89px" viewBox="0 0 595.28 841.89" style="enable-background:new 0 0 595.28 841.89;"
	 xml:space="preserve">
<g id="Milk_bottle">
	<path id="bottle" class="st10" d="M327.3,269.6c0.05,1.21,0.15,2.42,0.35,3.64c0.02,0.13,0.03,0.26,0.03,0.39
		c0,3.81-9.16,6.89-20.45,6.89c-11.3,0-20.45-3.09-20.45-6.89c0-0.13,0.01-0.26,0.03-0.39c0.2-1.21,0.3-2.43,0.35-3.64
		c-12.01,4.55-20.6,16.64-20.6,30.83v101.46v17.9c0,8.21,6.33,14.87,14.15,14.87h17.03h18.99h17.03c7.81,0,14.15-6.66,14.15-14.87
		v-17.9V300.44C347.9,286.24,339.31,274.15,327.3,269.6z"/>
	<path id="teat" class="st10" d="M327.66,263.52c0.02-0.13,0.03-0.26,0.03-0.39c0-2.75-4.81-5.13-11.73-6.23v-40.39
		c0-4.41-3.58-7.99-7.99-7.99h-0.38c-4.41,0-7.99,3.58-7.99,7.99v40.23c-7.51,1.02-12.81,3.5-12.81,6.39c0,0.13,0.01,0.26,0.03,0.39
		c0.54,3.24,0.54,6.47,0,9.72c-0.02,0.13-0.03,0.26-0.03,0.39c0,3.81,9.16,6.89,20.45,6.89c11.3,0,20.45-3.09,20.45-6.89
		c0-0.13-0.01-0.26-0.03-0.39C327.11,270,327.11,266.77,327.66,263.52z"/>
	<path id="fill_x5F_1" class="st6" d="M266.57,382.24v19.65v17.9c0,8.21,6.33,14.87,14.15,14.87h17.03h18.99h17.03
		c7.81,0,14.15-6.66,14.15-14.87v-17.9v-19.65H266.57z"/>
	<path id="fill_x5F_2" class="st6" d="M266.57,333.51v68.38v17.9c0,8.21,6.33,14.87,14.15,14.87h17.03h18.99h17.03
		c7.81,0,14.15-6.66,14.15-14.87v-17.9v-68.38H266.57z"/>
	<path id="fill_x5F_3" class="st6" d="M266.57,300.44v101.46v17.9c0,8.21,6.33,14.87,14.15,14.87h17.03h18.99h17.03
		c7.81,0,14.15-6.66,14.15-14.87v-17.9V300.44c0-1.88-0.16-3.71-0.45-5.5h-80.44C266.73,296.73,266.57,298.56,266.57,300.44z"/>
</g>
</svg>
